<svg version="1.0" xmlns="http://www.w3.org/2000/svg"
 width="1024.000000pt" height="1024.000000pt" viewBox="0 0 1024.000000 1024.000000"
 preserveAspectRatio="xMidYMid meet">

<g transform="translate(0.000000,1024.000000) scale(0.100000,-0.100000)"
fill="#000000" stroke="none">
<path d="M4855 8993 c-348 -28 -614 -77 -905 -169 -504 -158 -956 -400 -1338
-716 -124 -102 -473 -454 -574 -578 -466 -575 -737 -1230 -830 -2005 -18 -149
-17 -722 1 -870 81 -668 298 -1247 669 -1785 678 -982 1749 -1590 2957 -1680
932 -69 1981 273 2722 888 422 349 774 795 1027 1300 185 370 316 799 372
1222 25 192 31 684 10 881 -47 442 -147 810 -330 1217 -272 607 -778 1217
-1320 1591 -674 466 -1471 717 -2251 709 -93 -1 -188 -3 -210 -5z m438 -252
c155 -40 316 -142 416 -263 67 -81 135 -222 155 -320 27 -129 15 -338 -24
-443 -68 -184 -203 -341 -350 -408 -90 -41 -93 -41 -76 -9 27 51 134 147 165
147 9 0 16 8 16 20 0 11 8 31 18 45 15 21 19 23 28 10 9 -12 10 -12 5 4 -4 10
6 44 24 80 16 33 37 90 46 126 21 80 24 220 5 280 -7 25 -20 68 -28 95 -38
126 -161 278 -289 353 -106 63 -203 86 -339 79 -188 -8 -322 -70 -445 -205
-143 -155 -201 -383 -155 -603 30 -140 82 -224 211 -340 46 -40 110 -117 103
-123 -2 -2 -32 9 -67 25 -163 74 -306 243 -374 441 -31 90 -32 99 -32 253 0
146 2 167 27 240 134 402 545 623 960 516z m-914 -108 c-60 -62 -95 -109 -157
-214 -29 -47 -92 -213 -92 -239 0 -12 -4 -19 -8 -16 -4 2 -8 -4 -8 -15 0 -10
4 -19 8 -19 4 0 8 -238 8 -529 0 -454 -2 -530 -15 -541 -12 -10 -24 -3 -72 43
l-58 56 -1 308 c-1 169 -5 372 -10 450 -10 157 -10 157 -105 220 -43 28 -48
39 -21 46 9 2 6 3 -7 2 -14 -2 -34 0 -45 5 -12 4 -44 4 -72 1 l-52 -7 -5 40
c-3 23 -3 85 0 140 l6 99 61 38 c83 53 183 93 307 125 140 35 326 72 369 73
l34 1 -65 -67z m1512 39 c14 -6 14 -13 -3 -69 -19 -63 -33 -78 -45 -45 -3 9
-15 29 -25 44 -18 26 -18 27 -1 37 17 10 17 10 1 11 -10 0 -18 5 -18 11 0 7
10 9 25 7 13 -3 22 -1 19 3 -6 10 24 11 47 1z m-101 -12 c0 -5 -2 -10 -4 -10
-3 0 -8 5 -11 10 -3 6 -1 10 4 10 6 0 11 -4 11 -10z m640 -165 c56 -29 63
-125 13 -165 -38 -29 -65 -34 -107 -16 -71 29 -84 121 -24 171 34 29 75 32
118 10z m-310 -196 c63 -75 94 -130 114 -198 26 -90 22 -114 -33 -186 -70 -91
-118 -180 -137 -255 -9 -36 -20 -69 -25 -75 -5 -5 -9 -31 -9 -59 l0 -49 -21
19 c-34 30 -41 51 -27 77 7 12 14 33 16 47 1 14 10 48 18 75 36 117 35 321 -2
647 l-7 61 32 -22 c18 -13 54 -50 81 -82z m675 45 c50 -25 127 -69 173 -96 72
-43 81 -52 70 -66 -27 -32 -181 -162 -187 -157 -3 3 -15 61 -26 128 l-20 122
-58 -3 c-54 -4 -57 -2 -57 20 -1 12 -3 40 -6 61 -4 27 -2 37 8 37 7 0 54 -21
103 -46z m-3295 -14 c0 -27 -4 -50 -9 -50 -5 0 -30 9 -56 21 l-48 21 49 29
c27 16 52 29 57 29 4 0 7 -22 7 -50z m1794 6 c137 -70 225 -195 247 -351 25
-181 -17 -316 -132 -422 -118 -108 -142 -137 -175 -207 -33 -71 -54 -164 -54
-243 l0 -43 -85 0 c-96 0 -89 -8 -99 106 -11 131 -68 231 -184 328 -91 76
-132 130 -170 219 -23 55 -26 75 -26 172 0 90 5 121 24 170 58 151 157 247
308 296 44 15 81 18 163 16 101 -2 110 -4 183 -41z m-1883 -215 c106 -41 219
-134 281 -230 49 -78 80 -197 79 -309 0 -112 -19 -191 -62 -273 -54 -101 -216
-250 -255 -235 -8 3 -14 2 -14 -2 0 -13 -71 -41 -131 -52 -30 -6 -85 -8 -124
-5 -212 18 -356 109 -465 293 -101 171 -107 342 -19 522 73 148 207 259 370
305 80 22 266 15 340 -14z m3844 -61 c5 -8 -70 -8 -104 -1 -3 1 6 12 19 26
l23 24 28 -20 c16 -11 31 -24 34 -29z m-576 -35 c-1 -36 -6 -65 -12 -65 -5 0
-3 -8 4 -17 9 -11 10 -14 2 -10 -15 9 -29 -35 -17 -54 4 -7 3 -9 -4 -5 -5 3
-13 0 -15 -6 -3 -7 -6 1 -7 17 l-2 30 -8 -30 c-4 -16 -8 -22 -9 -12 -1 23 -28
22 -36 -2 -3 -10 -5 -23 -4 -27 6 -25 -18 -99 -58 -182 -56 -115 -133 -196
-237 -248 l-71 -35 -3 48 c-4 60 14 178 38 248 35 101 116 208 214 284 53 41
203 131 219 131 4 0 7 -29 6 -65z m684 -140 c143 -37 300 -162 352 -279 25
-56 32 -83 16 -57 -5 8 -9 -21 -10 -75 -3 -220 -65 -363 -201 -465 -86 -65
-148 -84 -275 -83 -123 0 -174 15 -260 74 l-48 33 6 72 c4 40 10 99 13 130 l7
58 -109 -5 c-60 -3 -116 -7 -124 -9 -26 -7 -20 169 9 254 27 81 105 199 159
244 125 102 316 147 465 108z m-4955 -341 c57 -39 67 -116 23 -166 -23 -26
-37 -33 -68 -33 -79 0 -136 71 -113 141 22 64 105 95 158 58z m3182 -84 c0 -5
-4 -10 -10 -10 -5 0 -10 5 -10 10 0 6 5 10 10 10 6 0 10 -4 10 -10z m-1106
-230 c35 -13 68 -68 60 -100 -14 -59 -74 -91 -124 -65 -59 30 -68 98 -21 146
32 31 45 34 85 19z m3645 -14 c56 -29 67 -102 22 -147 -48 -48 -116 -37 -147
23 -44 84 40 168 125 124z m-5718 -63 c57 -26 121 -83 164 -145 17 -26 50 -61
71 -77 50 -36 98 -95 127 -158 l22 -48 3 -862 2 -863 -85 0 -85 0 0 849 0 848
-23 34 c-30 44 -54 49 -63 12 -25 -112 -84 -196 -169 -238 -53 -26 -70 -30
-145 -30 -71 1 -94 5 -141 28 -69 33 -132 99 -167 175 -23 48 -27 70 -27 142
1 71 5 95 28 145 45 96 114 158 226 201 54 21 204 13 262 -13z m1384 -23 c3
-6 -1 -13 -10 -16 -11 -4 -12 -10 -6 -18 13 -15 -31 -72 -47 -62 -19 12 -14
36 16 71 29 36 37 40 47 25z m155 -135 l127 -125 56 0 c65 0 87 -17 111 -86
18 -53 17 -54 -109 -54 l-93 0 -148 143 -148 144 37 39 c27 28 33 40 22 42
-17 4 -11 22 7 22 6 0 68 -56 138 -125z m1868 99 c105 -21 214 -75 274 -135
47 -47 98 -139 112 -201 l6 -28 -110 0 c-99 0 -116 3 -161 26 -74 37 -131 102
-193 217 -75 141 -75 137 -37 137 18 0 67 -7 109 -16z m946 -31 c-3 -21 -15
-56 -25 -79 -10 -22 -19 -45 -19 -51 0 -6 -8 -17 -17 -24 -16 -13 -17 -12 -5
3 8 10 12 22 10 28 -1 5 -33 -26 -70 -70 -89 -105 -134 -135 -205 -135 l-55 0
-25 79 -25 79 54 54 c79 80 241 151 351 152 l38 1 -7 -37z m-1514 -159 c13
-13 42 -152 35 -165 -4 -5 -90 -9 -202 -9 l-195 0 7 23 c4 12 11 44 15 70 17
93 4 86 163 89 173 4 165 4 177 -8z m-511 -46 c0 -13 -8 -45 -18 -73 l-18 -50
-144 -3 -144 -2 -62 69 c-35 38 -63 72 -63 75 0 3 101 6 225 6 l225 0 -1 -22z
m901 -46 c22 -38 40 -71 40 -75 0 -4 -43 -6 -96 -5 l-96 3 -24 69 c-13 38 -24
71 -24 73 0 2 36 3 80 3 l79 0 41 -68z m2472 51 c119 -45 208 -139 249 -262
17 -51 20 -79 17 -145 -8 -123 -36 -185 -121 -269 -39 -38 -87 -77 -107 -86
-99 -50 -240 -53 -334 -7 -72 35 -157 128 -187 203 -35 88 -34 227 3 305 41
88 154 198 263 257 50 26 155 29 217 4z m-716 -368 c2 -106 14 -189 38 -245 5
-12 -1 -16 -30 -15 l-37 0 -33 94 c-30 85 -68 156 -135 259 l-21 33 108 -3
109 -3 1 -120z m-5665 52 c50 -39 48 -115 -4 -147 -43 -27 -69 -25 -101 6 -35
35 -35 82 0 123 28 33 75 41 105 18z m5182 -12 c100 -26 187 -98 229 -190 l23
-50 3 -850 c2 -467 0 -950 -3 -1073 l-7 -223 -67 3 -66 3 -5 995 -5 995 -23
47 c-27 54 -97 122 -150 146 -34 16 -172 17 -1732 20 -1662 2 -1696 2 -1760
-17 -88 -27 -149 -89 -183 -185 -8 -21 -13 -333 -17 -1016 l-5 -985 -70 0 -70
0 -3 1050 c-3 763 0 1064 8 1102 22 100 122 200 228 229 37 10 434 13 1832 13
1550 1 1793 -1 1843 -14z m-4532 -202 c-12 -20 -14 -14 -5 12 4 9 9 14 11 11
3 -2 0 -13 -6 -23z m6189 -48 c24 -73 20 -102 -17 -116 -41 -15 -46 0 -29 91
9 45 16 84 16 86 0 18 12 -6 30 -61z m-6650 -15 c14 -34 22 -36 128 -44 161
-11 285 -112 337 -274 14 -45 21 -54 46 -59 26 -5 29 -9 29 -44 0 -37 -2 -39
-32 -40 -22 -1 -26 -3 -13 -6 23 -6 36 -23 28 -37 -4 -5 -10 -1 -14 10 -6 15
-8 12 -8 -13 -1 -22 -6 -33 -16 -33 -8 0 -17 -12 -21 -27 -25 -121 -138 -243
-271 -294 -22 -8 -23 -6 -23 36 0 43 2 46 53 78 61 40 77 57 107 114 30 59 36
144 15 216 -9 31 -20 57 -23 57 -4 0 -44 -33 -89 -72 -197 -175 -193 -173
-234 -138 l-24 20 45 42 c25 24 102 94 170 157 69 62 129 120 133 128 10 16
-11 36 -55 52 -22 8 -34 4 -75 -22 -35 -22 -66 -33 -114 -38 -155 -17 -261
-110 -284 -246 l-7 -43 -109 0 c-123 0 -124 0 -117 91 l3 44 44 5 c43 5 44 6
64 62 27 76 80 144 147 190 79 54 80 55 80 94 0 30 5 37 33 49 46 20 53 19 67
-15z m545 -10 c-3 -5 -11 -10 -16 -10 -6 0 -7 5 -4 10 3 6 11 10 16 10 6 0 7
-4 4 -10z m4303 -73 c48 -26 85 -88 90 -154 3 -41 1 -54 -7 -52 -7 3 -11 7 -9
9 6 9 -42 54 -49 46 -4 -4 -3 -10 3 -14 6 -4 10 -15 8 -25 -5 -36 -12 -28 -21
24 -5 35 -15 56 -29 65 l-20 14 -3 -327 c-2 -181 -4 -575 -5 -876 l-2 -548
-22 -22 c-22 -22 -26 -22 -330 -22 l-307 0 1 30 c0 17 8 130 18 252 21 256 17
287 -43 380 -38 60 -86 99 -156 130 -33 14 -78 18 -262 21 l-223 4 39 46 c82
101 111 182 111 312 0 106 -17 167 -71 251 -46 71 -80 105 -154 154 -73 48
-138 67 -241 73 -145 7 -254 -33 -362 -133 -189 -175 -203 -464 -32 -657 l42
-48 -179 0 c-99 0 -206 -5 -238 -11 -112 -21 -186 -75 -235 -171 -27 -56 -30
-70 -30 -157 0 -53 7 -179 15 -280 8 -102 13 -186 12 -187 -1 -2 -172 -4 -380
-6 l-377 -4 -1 291 c-6 1396 -5 1499 14 1530 23 38 62 66 99 74 16 3 766 6
1666 6 1545 0 1639 -1 1670 -18z m66 -229 c-4 -6 -10 -5 -15 3 -14 22 -10 33
6 19 8 -7 12 -17 9 -22z m737 -74 c32 -29 42 -77 25 -117 -39 -93 -168 -84
-197 14 -11 37 -11 46 7 78 32 59 113 72 165 25z m1123 -1 c8 -28 26 -135 26
-155 0 -17 -18 -18 -342 -18 -194 0 -358 -4 -378 -10 -26 -7 -81 -54 -203
-174 -194 -191 -228 -213 -355 -223 l-82 -6 0 82 0 81 56 0 c32 0 72 7 92 17
21 9 113 94 207 189 104 105 187 180 213 193 65 33 130 38 459 40 279 1 302 0
307 -16z m-3500 -124 c154 -72 226 -263 154 -409 -97 -197 -322 -246 -492
-106 -124 101 -141 310 -37 436 30 37 113 88 165 101 55 14 157 4 210 -22z
m-3460 -126 c16 -51 128 -132 183 -133 40 0 53 -26 53 -102 l0 -71 -59 6 c-75
6 -167 54 -236 122 -56 54 -123 174 -104 185 6 4 44 8 84 9 63 2 74 -1 79 -16z
m6984 -99 l52 -7 0 -222 c0 -189 -2 -224 -15 -229 -10 -4 -15 1 -16 17 0 21
-1 21 -9 2 -6 -14 -9 -15 -10 -5 0 12 -3 11 -11 -2 -9 -16 -27 -18 -152 -18
-95 0 -137 -3 -127 -10 10 -7 -19 -9 -90 -8 l-105 2 85 6 85 6 -109 2 c-89 2
-111 -1 -120 -14 -10 -13 -16 -14 -39 -3 -42 19 -49 62 -45 262 l3 179 28 24
28 24 257 0 c141 0 281 -3 310 -6z m-796 -225 c-9 -8 -102 -20 -102 -13 0 3
21 28 47 56 l48 50 7 -43 c4 -24 4 -46 0 -50z m-6381 19 l31 -38 -51 0 -51 0
0 34 c0 19 3 42 6 50 8 20 21 11 65 -46z m903 -14 c11 -29 6 -34 -31 -34 l-36
0 23 25 c27 29 36 31 44 9z m5494 -189 c2 -1 -1 -94 -5 -206 l-8 -204 -282 -3
-283 -2 0 208 c0 115 2 211 5 213 5 5 567 -1 573 -6z m-5478 -60 l0 -65 -535
0 -535 0 0 43 c0 23 -3 52 -6 65 l-6 22 541 0 541 0 0 -65z m3394 -146 c15
-11 36 -39 47 -62 19 -35 20 -51 15 -131 -35 -510 -47 -675 -52 -701 -10 -50
-43 -93 -88 -114 -43 -21 -51 -21 -719 -19 -668 3 -676 3 -704 24 -44 33 -71
80 -77 137 -19 185 -58 758 -53 779 9 33 53 87 81 98 12 5 359 9 772 9 748 1
751 1 778 -20z m2914 -116 l-3 -78 -333 -5 c-184 -3 -336 -1 -339 3 -2 4 -1
41 2 82 l7 75 335 0 334 0 -3 -77z m-6870 38 c9 -6 41 -18 71 -27 66 -20 133
-79 167 -146 40 -78 30 -137 -40 -242 -45 -67 -71 -90 -130 -117 -41 -18 -60
-20 -114 -15 -104 11 -156 46 -221 151 -17 28 -31 43 -31 35 0 -8 9 -30 20
-47 11 -18 17 -41 14 -50 -5 -15 -4 -16 5 -3 12 17 12 17 17 -24 l3 -29 -25
24 c-13 13 -22 29 -19 37 2 7 1 11 -4 8 -10 -6 -51 113 -51 147 0 42 29 123
59 164 41 57 89 91 168 119 77 27 86 28 111 15z m902 -55 l0 -63 -93 -5 c-97
-5 -136 -18 -174 -60 -44 -47 -53 -88 -53 -243 0 -129 -2 -151 -21 -188 -35
-68 -234 -260 -305 -294 l-59 -28 -6 -457 c-4 -251 -10 -461 -14 -468 -9 -15
-43 17 -92 88 l-38 54 0 402 0 401 25 45 c19 34 44 56 108 95 92 57 152 112
218 198 l44 59 0 134 c0 153 16 212 75 282 72 83 142 111 283 112 l102 0 0
-64z m4613 -242 c18 -10 60 -35 95 -57 l64 -40 -44 -26 c-24 -14 -60 -38 -79
-53 -42 -33 -46 -33 -71 -11 -15 13 -18 32 -18 110 0 58 4 93 10 93 6 0 25 -7
43 -16z m-4621 -66 c-2 -35 -5 -64 -7 -66 -1 -1 -34 -3 -73 -5 l-72 -2 0 67 0
68 78 0 78 0 -4 -62z m5938 49 c0 -21 -39 -227 -53 -282 l-13 -50 -65 -7 c-35
-4 -108 -7 -162 -6 l-97 2 -24 40 c-90 153 -245 246 -413 246 -40 0 -54 6 -88
35 l-40 35 478 0 c389 0 477 -2 477 -13z m-1001 -284 c31 -46 36 -50 58 -42
13 5 50 9 82 9 56 0 58 1 74 35 22 45 41 53 81 30 46 -28 104 -75 110 -92 4
-9 -7 -30 -24 -49 -16 -19 -30 -38 -30 -43 0 -17 61 -119 75 -124 7 -3 29 -2
47 3 17 6 35 6 39 2 11 -11 14 -141 3 -151 -5 -5 -26 -6 -46 -4 -30 4 -38 10
-39 27 -1 19 -2 18 -8 -4 -5 -14 -20 -48 -35 -77 -32 -64 -32 -74 -2 -102 26
-25 25 -54 -1 -44 -11 4 -14 2 -9 -5 8 -13 -82 -84 -96 -76 -5 3 -7 11 -5 17
2 7 -3 18 -10 25 -17 18 -7 31 53 70 24 16 41 32 37 35 -3 4 -26 -10 -51 -31
-30 -25 -66 -43 -111 -54 -44 -12 -53 -16 -26 -13 35 4 37 3 15 -6 -14 -6 -41
-8 -60 -5 -86 13 -111 19 -116 27 -3 5 -13 9 -22 9 -16 -1 -16 -2 -1 -13 15
-12 15 -15 -3 -37 -11 -13 -25 -25 -32 -26 -7 -1 -40 22 -72 51 l-59 53 23 24
c28 31 28 36 -5 103 l-27 55 -56 0 -55 0 3 75 4 75 43 0 c50 0 55 4 93 82 l28
56 -28 24 c-45 37 -37 61 39 118 37 28 71 49 77 47 6 -2 26 -26 45 -54z
m-4937 -180 c4 -123 9 -180 21 -211 l16 -43 -97 3 -97 3 -2 195 c-2 107 -1
201 2 208 3 8 28 12 79 12 l74 0 4 -167z m1328 -139 c37 -91 138 -179 226
-198 31 -7 31 -8 19 -34 -8 -15 -18 -40 -24 -55 l-11 -28 -522 3 -523 3 -60
29 c-109 53 -232 199 -250 299 l-7 37 564 0 564 0 24 -56z m3011 50 l60 -7 -6
-31 c-21 -103 -131 -237 -240 -291 l-60 -30 -526 -3 -526 -3 -20 55 -21 56 53
24 c93 42 169 127 189 208 l6 26 515 1 c284 1 543 -1 576 -5z m-5405 -46 c49
-59 54 -83 54 -280 0 -113 -4 -178 -9 -172 -23 22 -150 323 -187 442 l-13 42
64 0 c59 0 65 -2 91 -32z m736 -57 l-4 -61 -71 0 -70 0 24 28 c13 15 44 48 69
75 51 54 57 50 52 -42z m6084 -63 c-99 -273 -181 -436 -334 -666 -54 -81 -78
-109 -83 -99 -5 7 -7 63 -6 124 l2 111 61 68 c176 198 242 324 269 517 l6 37
59 0 59 0 -33 -92z m-3806 -103 c16 -8 42 -32 57 -52 l28 -36 3 -445 c3 -429
2 -446 -18 -486 -44 -92 -163 -113 -238 -43 -49 46 -50 47 -57 509 -8 432 -8
436 14 480 37 77 137 111 211 73z m827 -2 c19 -9 46 -34 60 -55 l26 -39 -1
-439 c-1 -241 -6 -449 -11 -462 -50 -133 -229 -141 -291 -14 -20 43 -21 54
-18 484 3 429 4 441 24 469 52 70 135 92 211 56z m-2580 -109 c21 -25 37 -50
35 -56 -1 -5 2 -7 7 -4 13 9 61 -33 61 -53 0 -16 -13 -19 -97 -24 -54 -4 -213
-7 -355 -7 l-256 0 -7 -150 -8 -150 -63 0 -64 0 -1 218 c0 119 -2 226 -4 236
-2 11 -2 23 1 28 3 4 164 8 359 8 l354 0 38 -46z m4993 -29 c14 -19 14 -19 -2
-6 -10 7 -18 18 -18 24 0 6 1 8 3 6 1 -2 9 -13 17 -24z m-3632 -207 l-3 -73
-180 0 c-210 0 -243 5 -291 47 -30 27 -64 75 -64 93 0 3 122 5 270 5 l271 0
-3 -72z m2092 57 c0 -28 -48 -81 -94 -104 -45 -23 -64 -25 -217 -29 -92 -3
-197 -1 -233 3 l-66 7 0 62 c0 35 3 66 7 70 4 4 141 6 305 5 231 -1 298 -4
298 -14z m-1280 -39 c0 -73 -3 -76 -81 -76 l-69 0 0 60 0 60 75 0 75 0 0 -44z
m-1754 -54 c0 -48 4 -100 8 -117 5 -22 4 -26 -4 -15 -8 12 -10 11 -10 -7 0
-22 -4 -23 -65 -23 l-65 0 0 118 c0 65 3 122 7 125 3 4 34 7 67 7 l61 0 1 -88z
m288 58 c14 -5 32 -23 41 -40 9 -17 31 -48 50 -68 29 -33 32 -42 26 -72 l-7
-35 -92 -3 -92 -3 0 122 0 121 25 -6 c13 -3 35 -10 49 -16z m3097 -103 c26
-67 50 -130 54 -139 6 -14 0 -17 -37 -20 l-43 -3 -3 -152 -3 -153 -80 0 -81 0
3 153 3 152 -30 -2 c-16 -1 -39 0 -51 3 -21 4 -22 5 -6 42 8 20 37 83 63 140
l49 102 58 0 58 0 46 -123z m737 51 l-3 -43 -240 0 -240 0 -3 43 -3 42 246 0
246 0 -3 -42z m410 -255 c-3 -235 -6 -283 -19 -308 -20 -35 -105 -125 -119
-125 -6 0 -10 129 -10 355 l0 355 76 0 75 0 -3 -277z m-4844 -66 c-1 -155 -2
-294 -3 -308 -1 -33 -46 -79 -77 -79 -12 0 -36 11 -51 24 l-28 24 -2 214 c-2
205 -3 214 -24 230 -19 16 -45 18 -210 18 l-189 0 0 80 0 80 293 0 292 0 -1
-283z m4540 121 c-1 -10 -2 -34 -3 -53 l-1 -35 -299 0 -299 0 6 45 c4 41 3 45
-17 45 -12 0 -20 -3 -18 -7 3 -5 -2 -14 -10 -22 -13 -12 -14 -10 -11 10 2 17
11 26 33 30 17 4 163 6 325 5 274 -1 295 -2 294 -18z m-3477 -148 c32 -166 40
-150 -82 -150 -73 0 -105 4 -105 12 0 9 51 177 75 246 3 9 19 12 47 10 l42 -3
23 -115z m2063 3 c18 -65 35 -126 38 -135 4 -16 -6 -18 -107 -18 -61 0 -111 3
-111 8 0 4 14 64 32 134 l33 128 41 0 42 0 32 -117z m-350 -570 c0 -373 -3
-735 -7 -805 l-6 -128 -31 -5 c-17 -3 -44 -6 -61 -7 l-30 -3 -3 513 -2 513 47
92 48 92 3 208 c3 197 4 207 23 207 19 0 19 -13 19 -677z m-1531 540 c1 -60 4
-153 7 -208 5 -108 15 -131 83 -206 l32 -34 -3 -470 c-3 -460 -3 -471 -25
-517 -21 -45 -24 -48 -60 -48 -22 0 -44 5 -51 12 -9 9 -12 101 -12 353 0 498
12 1225 20 1225 4 0 8 -48 9 -107z m-546 16 c14 -8 17 -23 17 -78 l0 -68 -31
-7 c-17 -3 -143 -6 -280 -6 l-249 0 0 84 c0 58 4 86 13 90 20 9 510 -5 530
-15z m-1197 -35 c15 -11 42 -37 58 -58 l31 -38 1 -192 c0 -106 4 -198 8 -204
5 -9 68 -12 214 -12 l208 0 82 84 c45 46 97 91 116 100 38 18 119 22 371 19
l170 -3 -5 -82 -5 -83 -239 -3 -240 -2 -75 -74 c-113 -109 -102 -106 -363
-106 -214 0 -225 1 -273 24 -53 25 -90 59 -124 116 -19 32 -21 50 -21 202 l0
167 -142 3 -143 3 -3 83 -3 84 175 -4 c158 -3 177 -5 202 -24z m5012 -34 c30
0 32 -2 32 -32 0 -61 15 -58 -366 -56 l-349 3 -3 38 c-2 20 -2 38 0 39 7 4
529 15 588 12 36 -2 80 -4 98 -4z m-1178 -56 c0 -13 -4 -24 -10 -24 -5 0 -10
14 -10 31 0 17 4 28 10 24 6 -3 10 -17 10 -31z m17 -6 c-3 -7 -5 -2 -5 12 0
14 2 19 5 13 2 -7 2 -19 0 -25z m450 -5 c-3 -10 -5 -4 -5 12 0 17 2 24 5 18 2
-7 2 -21 0 -30z m-2739 -701 c-1 -325 -6 -594 -11 -598 -4 -4 -38 1 -75 12
l-67 19 -1 570 c0 314 1 572 2 575 1 3 37 6 79 8 l77 4 -4 -590z m2051 56 c-1
-293 -4 -554 -6 -579 l-5 -46 -66 -16 c-37 -8 -69 -13 -72 -10 -6 6 -12 1154
-5 1171 3 8 29 12 80 12 l75 0 -1 -532z m1419 432 c38 -23 65 -79 56 -114 -3
-13 -17 -35 -31 -48 l-25 -23 -614 -3 -614 -3 0 106 0 105 598 0 c581 0 598
-1 630 -20z m-2472 -97 c3 -21 24 -86 45 -144 22 -59 39 -109 39 -112 0 -3
-67 -6 -150 -6 -82 -1 -150 0 -150 3 0 3 16 49 36 103 19 54 36 119 37 145 l2
48 67 0 67 0 7 -37z m-401 -145 c-20 -67 -27 -73 -88 -76 l-57 -3 0 51 0 50
76 0 c73 0 75 -1 69 -22z m-1167 -95 c3 -29 8 -33 55 -47 116 -34 177 -110
185 -231 5 -82 -16 -137 -73 -190 -49 -46 -194 -90 -187 -57 1 8 -10 11 -35 8
-37 -5 -97 20 -87 36 3 4 -1 6 -8 3 -16 -6 -83 57 -104 97 -44 84 -20 203 55
275 25 24 55 46 68 49 16 4 24 16 29 40 5 27 13 36 38 43 48 14 61 9 64 -26z
m3396 -21 c3 -5 2 -79 -1 -166 l-6 -157 -28 -15 c-22 -11 -81 -14 -289 -14
l-260 0 0 180 0 180 289 0 c160 0 292 -4 295 -8z m318 -25 c2 -12 3 -28 0 -35
-3 -10 -103 -83 -159 -116 -10 -5 -13 14 -13 83 l0 91 84 0 c79 0 84 -1 88
-23z m-2151 -117 l77 0 51 -152 c27 -84 60 -189 72 -233 41 -157 49 -186 49
-190 0 -3 -150 -5 -333 -5 l-334 0 -19 -42 c-15 -34 -25 -44 -46 -46 -37 -4
-36 7 8 126 43 115 190 497 205 531 9 23 12 23 102 18 51 -4 126 -6 168 -7z
m419 -20 c0 -36 -6 -37 -31 -7 -25 30 -24 37 6 37 21 0 25 -5 25 -30z m-907 4
c-5 -13 -7 -13 -14 -2 -7 10 -9 10 -9 1 0 -7 -4 -13 -8 -13 -5 0 -9 7 -9 15 0
9 10 15 23 15 17 0 22 -4 17 -16z m-1523 -59 c0 -30 -4 -55 -9 -55 -8 0 -46
25 -114 72 -15 11 -25 24 -22 29 4 5 37 9 76 9 l69 0 0 -55z"/>
<path d="M3848 8163 c7 -3 16 -2 19 1 4 3 -2 6 -13 5 -11 0 -14 -3 -6 -6z"/>
<path d="M5059 8220 c-1 -5 -3 -14 -4 -20 -1 -5 -3 -18 -4 -29 -1 -11 -19 -28
-47 -42 -65 -33 -87 -66 -92 -138 -7 -94 34 -142 180 -212 62 -30 80 -68 51
-107 -31 -42 -64 -49 -123 -28 l-51 18 -39 -26 c-22 -14 -40 -33 -40 -40 0
-27 59 -65 110 -72 l49 -6 3 -47 c3 -44 4 -46 36 -49 44 -4 62 12 62 59 0 32
5 41 29 53 42 22 89 80 101 127 26 94 -16 167 -129 224 -113 57 -139 101 -85
144 33 26 60 26 102 1 18 -11 41 -20 51 -20 21 0 71 53 71 75 0 20 -50 52 -93
60 -34 7 -38 11 -43 46 -6 38 -7 39 -50 39 -24 0 -45 -4 -45 -10z"/>
<path d="M3176 7948 c-3 -7 -7 -24 -10 -38 -4 -17 -21 -33 -52 -50 -68 -36
-89 -69 -89 -139 0 -82 27 -115 145 -170 102 -49 129 -77 112 -116 -17 -36
-80 -52 -122 -31 -49 24 -83 20 -120 -14 -17 -16 -30 -35 -28 -42 8 -24 60
-52 106 -58 l47 -5 5 -45 5 -45 48 -3 47 -3 0 45 c0 43 3 47 38 65 108 56 144
180 75 262 -16 18 -65 50 -118 75 -64 31 -95 52 -104 70 -30 66 54 95 154 54
28 -12 33 -10 68 21 20 18 37 38 37 46 0 18 -44 45 -98 58 -41 11 -46 15 -47
41 0 27 -3 29 -48 32 -32 2 -48 -1 -51 -10z"/>
<path d="M3731 7504 c0 -11 3 -14 6 -6 3 7 2 16 -1 19 -3 4 -6 -2 -5 -13z"/>
<path d="M3669 7323 c-5 -29 -5 -53 -1 -48 7 6 12 55 6 55 -2 0 -5 -3 -5 -7z"/>
<path d="M3623 7295 c-3 -9 -3 -18 -1 -21 3 -3 8 4 11 16 6 23 -1 27 -10 5z"/>
<path d="M3589 7253 c-13 -16 -12 -17 4 -4 16 13 21 21 13 21 -2 0 -10 -8 -17
-17z"/>
<path d="M3610 7229 c0 -5 5 -7 10 -4 6 3 10 8 10 11 0 2 -4 4 -10 4 -5 0 -10
-5 -10 -11z"/>
<path d="M3481 7170 c-59 -39 -64 -47 -15 -22 22 11 46 28 53 36 18 21 14 20
-38 -14z"/>
<path d="M3510 7151 c0 -6 4 -13 10 -16 6 -3 7 1 4 9 -7 18 -14 21 -14 7z"/>
<path d="M2970 7136 l25 -15 -25 -11 c-24 -10 -24 -10 5 -4 16 3 32 8 34 10 7
7 -12 21 -39 28 l-25 7 25 -15z"/>
<path d="M3012 7105 c-11 -12 -10 -15 4 -15 14 0 14 -3 4 -15 -11 -13 -10 -14
4 -9 10 4 15 13 12 20 -3 8 1 14 10 14 8 0 17 -7 20 -15 5 -11 24 -15 73 -17
36 0 51 -3 34 -5 -19 -3 -33 -10 -33 -18 0 -16 56 -24 134 -17 57 5 58 5 30
18 l-29 13 38 -5 c46 -8 49 2 5 16 l-33 10 33 -5 c19 -3 43 0 55 7 21 11 21
11 2 18 -11 4 -46 3 -78 -3 -54 -10 -190 0 -252 17 -12 3 -25 0 -33 -9z m265
-31 c-3 -3 -12 -4 -19 -1 -8 3 -5 6 6 6 11 1 17 -2 13 -5z"/>
<path d="M3398 7073 c7 -3 16 -2 19 1 4 3 -2 6 -13 5 -11 0 -14 -3 -6 -6z"/>
<path d="M3360 7060 c0 -5 5 -10 11 -10 5 0 7 5 4 10 -3 6 -8 10 -11 10 -2 0
-4 -4 -4 -10z"/>
<path d="M3083 7053 c9 -2 23 -2 30 0 6 3 -1 5 -18 5 -16 0 -22 -2 -12 -5z"/>
<path d="M7198 7729 c-2 -27 -11 -38 -47 -58 -65 -38 -86 -72 -86 -136 0 -85
25 -108 204 -188 51 -23 61 -50 29 -84 -19 -21 -30 -24 -68 -20 -25 2 -60 10
-78 18 -31 13 -33 12 -69 -23 -32 -32 -35 -39 -23 -53 21 -26 66 -45 105 -45
34 0 35 -1 35 -39 0 -44 18 -57 64 -45 20 5 26 13 26 33 0 34 8 44 48 60 64
26 110 110 97 177 -10 55 -57 99 -136 129 -89 34 -128 66 -113 92 6 10 27 26
46 36 34 16 39 17 73 2 52 -21 70 -19 94 11 32 41 26 53 -39 82 -47 21 -60 31
-62 52 -3 22 -8 25 -50 28 -46 3 -47 3 -50 -29z"/>
<path d="M2185 6941 c-22 -10 -51 -31 -65 -45 -22 -24 -25 -37 -25 -98 0 -69
0 -70 43 -110 43 -39 45 -40 106 -36 106 6 163 70 154 170 -6 59 -51 112 -108
128 -48 13 -59 12 -105 -9z m95 -101 c26 -26 25 -55 -2 -74 -29 -20 -47 -20
-70 1 -23 21 -23 34 3 67 25 31 42 33 69 6z"/>
<path d="M4212 6771 c13 -15 25 -27 26 -25 6 4 -32 53 -41 54 -5 0 2 -13 15
-29z"/>
<path d="M7939 6773 c0 -28 -17 -78 -18 -56 -2 22 -100 -79 -112 -114 -30 -91
27 -164 158 -203 74 -22 91 -64 37 -89 -34 -15 -57 -14 -99 6 -34 16 -36 16
-62 -3 -47 -36 -52 -52 -20 -80 15 -13 40 -24 55 -24 38 0 50 -10 54 -45 3
-28 7 -30 46 -33 42 -3 42 -3 42 31 0 29 5 35 40 51 42 18 74 55 92 106 8 24
7 40 -6 74 -19 50 -49 74 -131 105 -97 36 -116 63 -69 100 34 26 58 26 100 0
l34 -21 30 30 c50 51 35 85 -45 102 -27 5 -30 10 -33 48 l-3 42 -45 0 c-41 0
-44 -2 -45 -27z"/>
<path d="M3412 5838 c-7 -7 -12 -24 -12 -38 0 -33 17 -50 50 -50 33 0 46 10
53 42 5 18 2 32 -9 42 -18 19 -65 21 -82 4z"/>
<path d="M3421 5694 c-24 -17 -29 -72 -9 -92 20 -20 76 -15 88 8 19 36 8 72
-26 86 -26 11 -35 10 -53 -2z"/>
<path d="M3430 4767 c0 -10 -4 -15 -10 -12 -18 11 -10 -11 10 -30 19 -17 21
-17 40 0 20 19 28 41 10 30 -5 -3 -10 1 -10 9 0 9 -4 16 -10 16 -5 0 -10 -6
-10 -12 0 -9 -4 -8 -10 2 -8 13 -10 12 -10 -3z"/>
<path d="M3423 4602 c-20 -20 -16 -49 9 -66 33 -23 250 -23 272 0 22 22 20 41
-6 58 -32 20 -256 27 -275 8z"/>
<path d="M6468 4603 c-23 -6 -34 -49 -18 -68 30 -37 148 -26 171 16 8 16 7 25
-7 40 -13 15 -30 19 -73 18 -31 -1 -64 -3 -73 -6z"/>
<path d="M8707 5331 c-3 -59 -3 -128 0 -152 l6 -44 13 35 c7 19 13 53 14 75 1
32 3 36 10 20 13 -30 12 0 -1 32 l-12 28 -7 -25 c-7 -21 -8 -18 -9 18 -1 23 4
42 9 42 6 0 10 5 10 11 0 5 -5 7 -11 3 -8 -5 -10 4 -7 30 2 20 1 36 -3 36 -3
0 -9 -49 -12 -109z m20 -123 c-3 -7 -5 -2 -5 12 0 14 2 19 5 13 2 -7 2 -19 0
-25z"/>
<path d="M5023 4661 c-131 -33 -201 -177 -141 -291 101 -188 381 -117 381 97
0 123 -124 222 -240 194z"/>
<path d="M1827 4668 c-33 -36 -56 -70 -54 -78 12 -41 11 -45 -10 -48 -27 -4
-35 -26 -21 -57 10 -23 20 -29 40 -26 3 0 16 -19 27 -42 12 -24 34 -56 51 -72
28 -27 30 -27 55 -11 33 22 33 58 0 80 -14 9 -25 26 -25 37 0 19 4 20 51 14
39 -5 54 -4 60 6 25 40 -6 69 -72 69 -49 0 -50 1 -47 28 3 24 8 27 45 30 64 5
67 32 9 88 -26 24 -48 44 -49 44 -2 0 -29 -28 -60 -62z"/>
<path d="M7753 3987 c-31 -29 -37 -41 -40 -88 -7 -97 57 -157 156 -146 36 4
52 13 78 41 40 43 45 86 11 86 -34 0 -68 11 -68 21 0 5 11 15 25 21 62 28 3
98 -83 98 -34 0 -49 -6 -79 -33z"/>
<path d="M7469 3958 c-6 -21 -5 -38 2 -38 5 0 10 6 10 13 1 6 5 -4 9 -23 l7
-35 2 43 c1 31 -3 42 -14 42 -8 0 -15 -1 -16 -2z"/>
<path d="M8198 3923 c7 -3 16 -2 19 1 4 3 -2 6 -13 5 -11 0 -14 -3 -6 -6z"/>
<path d="M7615 3660 c3 -5 8 -10 11 -10 2 0 4 5 4 10 0 6 -5 10 -11 10 -5 0
-7 -4 -4 -10z"/>
<path d="M8083 3655 c-7 -7 -18 -15 -25 -18 -7 -2 -11 -7 -8 -10 3 -3 16 3 30
13 14 10 23 21 20 23 -3 3 -10 -1 -17 -8z"/>
<path d="M7570 3641 c0 -6 4 -13 10 -16 6 -3 7 1 4 9 -7 18 -14 21 -14 7z"/>
<path d="M7650 3620 c-11 -8 -9 -9 13 -8 15 1 27 6 27 10 0 11 -22 10 -40 -2z"/>
<path d="M7654 3584 c-18 -14 -18 -15 5 -4 18 10 25 9 32 -1 4 -7 11 -10 16
-6 4 5 1 12 -7 17 -20 13 -23 12 -46 -6z"/>
<path d="M3530 2063 c-62 -23 -81 -103 -35 -148 53 -54 155 -12 155 63 -1 44
-16 67 -54 82 -29 11 -43 11 -66 3z"/>
<path d="M3730 1879 c0 -5 5 -7 10 -4 6 3 10 8 10 11 0 2 -4 4 -10 4 -5 0 -10
-5 -10 -11z"/>
<path d="M3475 1788 c11 -6 31 -13 45 -14 32 -4 7 11 -35 20 -27 6 -28 5 -10
-6z"/>
<path d="M3588 1773 c6 -2 18 -2 25 0 6 3 1 5 -13 5 -14 0 -19 -2 -12 -5z"/>
<path d="M5103 2103 c-16 -6 -17 -59 -2 -68 5 -4 21 -4 35 -1 19 5 24 13 24
36 0 17 -4 30 -9 30 -5 0 -15 2 -23 4 -7 3 -19 2 -25 -1z"/>
<path d="M5158 1949 c-27 -15 -23 -57 7 -71 21 -9 28 -8 45 7 25 22 25 37 2
58 -21 19 -30 20 -54 6z"/>
<path d="M5021 1731 c-26 -26 -27 -53 -3 -74 36 -33 92 -16 92 28 0 50 -56 79
-89 46z"/>
</g>
</svg>
